<?xml version="1.0" encoding="UTF-8"?>
<svg width="84px" height="71px" viewBox="0 0 84 71" version="1.1" xmlns="http://www.w3.org/2000/svg" xmlns:xlink="http://www.w3.org/1999/xlink">
    <!-- Generator: Sketch 41.2 (35397) - http://www.bohemiancoding.com/sketch -->
    <title>logo.svg</title>
    <desc>Created with Sketch.</desc>
    <defs></defs>
    <g id="Page-1" stroke="none" stroke-width="1" fill="none" fill-rule="evenodd">
        <g id="BASECAMP" transform="translate(-423.000000, -175.000000)">
            <g id="logo" transform="translate(423.000000, 175.000000)">
                <g id="logo.svg">
                    <path d="M0,53.6869231 C0.657658537,50.1451154 8.32419512,0.368653846 42.4561951,0.682692308 C74.236878,0.97625 83.7903415,50.2174808 83.3,54.2214712 C83.3,54.2214712 75.0905366,71.2068558 41.3812683,70.2838558 C13.8825366,69.5315288 0.822926829,57.7291442 0,53.6869231 Z" id="形状_1" fill="#B4DDFF"></path>
                    <path d="M6.44887805,51.0100865 C8.36107317,54.5006923 17.3142439,65.7671635 41.9187317,64.9295 C70.7225366,63.9505192 75.4388293,54.3573269 77.9260488,51.5453173 C78.5611707,48.4165385 63.1065366,18.8313846 53.7422439,17.8155385 C47.7789268,17.1690288 39.6807805,35.7799038 33.8574634,35.4829327 C28.8440976,35.2276058 28.9806829,28.3645 22.0339512,27.9883365 C14.7867317,27.5957885 7.04234146,48.1386827 6.44887805,51.0100865 Z" id="形状_2" fill="#00AE44"></path>
                    <path d="M6.44887805,51.0100865 C8.36107317,54.5006923 17.3142439,65.7671635 41.9187317,64.9295 C70.7225366,63.9505192 75.4388293,54.3573269 77.9260488,51.5453173 C78.5611707,48.4165385 63.0539512,19.2457788 53.7422439,17.8155385 C49.8058537,17.2106731 43.8398049,42.9741154 33.8574634,42.4436635 C24.696,41.9575865 25.8801951,28.1829038 22.0339512,27.9883365 C14.7853659,27.6210481 7.04234146,48.1386827 6.44887805,51.0100865 Z" id="形状_2_拷贝" fill="#5ECD62"></path>
                    <path d="M55.6161951,45.1218654 C57.8291845,45.1339152 59.6145352,46.9349199 59.6065102,49.1471675 C59.5984852,51.3594152 57.8001151,53.1474287 55.5870966,53.143434 C53.374078,53.1394392 51.5821792,51.3449449 51.5821463,49.1326827 C51.5850404,48.0660496 52.0116818,47.0442527 52.7682136,46.2920777 C53.5247453,45.5399027 54.5491956,45.1189645 55.6161951,45.1218654 L55.6161951,45.1218654 Z M28.747122,45.1218654 C30.9602026,45.1335391 32.7458965,46.9343794 32.7381216,49.1467173 C32.7303467,51.3590551 30.9320396,53.1473087 28.7189315,53.143438 C26.5058234,53.1395673 24.7137869,51.3450342 24.7137561,49.1326827 C24.7164693,48.0661122 25.1429591,47.0443137 25.8993824,46.2921191 C26.6558057,45.5399246 27.6801856,45.1189646 28.747122,45.1218654 L28.747122,45.1218654 Z" id="eyes" fill="#000000"></path>
                    <path d="M50.5809756,56.0319712 L50.6069268,56.0585962 C48.6731924,58.6257282 45.6414355,60.1306472 42.4267985,60.1190902 C39.2121616,60.1075331 36.1913112,58.5808541 34.2760976,55.9998846 C33.7660715,55.5262023 33.7033566,54.7411859 34.1317126,54.1925876 C34.5600686,53.6439894 35.3370823,53.514199 35.9205854,53.8937788 L36.1411707,53.6746346 C37.429251,55.8378042 39.7362141,57.1904039 42.2535622,57.258402 C44.7709104,57.3264001 47.1475763,56.1003136 48.5506341,54.0098365 L48.6872195,54.146375 C49.015903,53.7709245 49.5261682,53.6093328 50.0111549,53.7271089 C50.4961415,53.8448849 50.875377,54.2224863 50.9951202,54.7068345 C51.1148635,55.1911826 50.9552457,55.7019108 50.5809756,56.0319712 L50.5809756,56.0319712 Z" id="m" fill="#000000"></path>
                </g>
            </g>
        </g>
    </g>
</svg>